<mxfile host="www.draw.io" modified="2020-01-02T18:43:09.299Z" agent="Mozilla/5.0 (Macintosh; Intel Mac OS X 10_15_1) AppleWebKit/537.36 (KHTML, like Gecko) Chrome/79.0.3945.88 Safari/537.36" etag="4RnG-SecjgPj5g_s5mWb" version="12.4.8" type="github">
  <diagram id="QTolocRpUIRaSXo2WMzZ" name="01 - mockup">
    <mxGraphModel dx="996" dy="478" grid="1" gridSize="10" guides="1" tooltips="1" connect="1" arrows="1" fold="1" page="1" pageScale="1" pageWidth="1920" pageHeight="1200" math="0" shadow="0">
      <root>
        <mxCell id="0"/>
        <mxCell id="1" parent="0"/>
        <mxCell id="sCoDXY34yT8PbmyZDTl2-1" value="" style="strokeWidth=1;shadow=0;dashed=0;align=center;html=1;shape=mxgraph.mockup.containers.browserWindow;rSize=0;strokeColor=#666666;strokeColor2=#008cff;strokeColor3=#c4c4c4;mainText=,;recursiveResize=0;" vertex="1" parent="1">
          <mxGeometry x="270" y="140" width="670" height="450" as="geometry"/>
        </mxCell>
        <mxCell id="sCoDXY34yT8PbmyZDTl2-2" value="Page 1" style="strokeWidth=1;shadow=0;dashed=0;align=center;html=1;shape=mxgraph.mockup.containers.anchor;fontSize=17;fontColor=#666666;align=left;" vertex="1" parent="sCoDXY34yT8PbmyZDTl2-1">
          <mxGeometry x="60" y="12" width="110" height="26" as="geometry"/>
        </mxCell>
        <mxCell id="sCoDXY34yT8PbmyZDTl2-3" value="https://www.draw.io" style="strokeWidth=1;shadow=0;dashed=0;align=center;html=1;shape=mxgraph.mockup.containers.anchor;rSize=0;fontSize=17;fontColor=#666666;align=left;" vertex="1" parent="sCoDXY34yT8PbmyZDTl2-1">
          <mxGeometry x="130" y="60" width="250" height="26" as="geometry"/>
        </mxCell>
        <mxCell id="sCoDXY34yT8PbmyZDTl2-4" value="" style="rounded=1;whiteSpace=wrap;html=1;" vertex="1" parent="sCoDXY34yT8PbmyZDTl2-1">
          <mxGeometry x="80" y="150" width="240" height="150" as="geometry"/>
        </mxCell>
        <mxCell id="sCoDXY34yT8PbmyZDTl2-5" value="Card Number" style="text;html=1;strokeColor=none;fillColor=none;align=left;verticalAlign=middle;whiteSpace=wrap;rounded=0;fontStyle=1" vertex="1" parent="sCoDXY34yT8PbmyZDTl2-1">
          <mxGeometry x="95" y="200" width="105" height="20" as="geometry"/>
        </mxCell>
        <mxCell id="sCoDXY34yT8PbmyZDTl2-6" value="Name" style="text;html=1;strokeColor=none;fillColor=none;align=left;verticalAlign=middle;whiteSpace=wrap;rounded=0;fontStyle=1" vertex="1" parent="sCoDXY34yT8PbmyZDTl2-1">
          <mxGeometry x="95" y="250" width="105" height="20" as="geometry"/>
        </mxCell>
        <mxCell id="sCoDXY34yT8PbmyZDTl2-7" value="Expiration" style="text;html=1;strokeColor=none;fillColor=none;align=left;verticalAlign=middle;whiteSpace=wrap;rounded=0;fontStyle=1" vertex="1" parent="sCoDXY34yT8PbmyZDTl2-1">
          <mxGeometry x="215" y="250" width="105" height="20" as="geometry"/>
        </mxCell>
        <mxCell id="sCoDXY34yT8PbmyZDTl2-8" value="Name" style="text;html=1;strokeColor=none;fillColor=none;align=left;verticalAlign=middle;whiteSpace=wrap;rounded=0;fontStyle=1" vertex="1" parent="sCoDXY34yT8PbmyZDTl2-1">
          <mxGeometry x="360" y="150" width="40" height="20" as="geometry"/>
        </mxCell>
        <mxCell id="sCoDXY34yT8PbmyZDTl2-9" value="&amp;nbsp; Jane Daniels" style="rounded=0;whiteSpace=wrap;html=1;align=left;" vertex="1" parent="sCoDXY34yT8PbmyZDTl2-1">
          <mxGeometry x="360" y="170" width="280" height="30" as="geometry"/>
        </mxCell>
        <mxCell id="sCoDXY34yT8PbmyZDTl2-10" value="Card Number" style="text;html=1;strokeColor=none;fillColor=none;align=left;verticalAlign=middle;whiteSpace=wrap;rounded=0;fontStyle=1" vertex="1" parent="sCoDXY34yT8PbmyZDTl2-1">
          <mxGeometry x="360" y="210" width="130" height="20" as="geometry"/>
        </mxCell>
        <mxCell id="sCoDXY34yT8PbmyZDTl2-11" value="&amp;nbsp;424242424242424" style="rounded=0;whiteSpace=wrap;html=1;align=left;" vertex="1" parent="sCoDXY34yT8PbmyZDTl2-1">
          <mxGeometry x="360" y="230" width="280" height="30" as="geometry"/>
        </mxCell>
        <mxCell id="sCoDXY34yT8PbmyZDTl2-12" value="Expiration" style="text;html=1;strokeColor=none;fillColor=none;align=left;verticalAlign=middle;whiteSpace=wrap;rounded=0;fontStyle=1" vertex="1" parent="sCoDXY34yT8PbmyZDTl2-1">
          <mxGeometry x="360" y="270" width="130" height="20" as="geometry"/>
        </mxCell>
        <mxCell id="sCoDXY34yT8PbmyZDTl2-13" value="" style="rounded=0;whiteSpace=wrap;html=1;align=left;" vertex="1" parent="sCoDXY34yT8PbmyZDTl2-1">
          <mxGeometry x="360" y="290" width="130" height="30" as="geometry"/>
        </mxCell>
        <mxCell id="sCoDXY34yT8PbmyZDTl2-14" value="Security Code" style="text;html=1;strokeColor=none;fillColor=none;align=left;verticalAlign=middle;whiteSpace=wrap;rounded=0;fontStyle=1" vertex="1" parent="sCoDXY34yT8PbmyZDTl2-1">
          <mxGeometry x="510" y="270" width="130" height="20" as="geometry"/>
        </mxCell>
        <mxCell id="sCoDXY34yT8PbmyZDTl2-15" value="" style="rounded=0;whiteSpace=wrap;html=1;align=left;" vertex="1" parent="sCoDXY34yT8PbmyZDTl2-1">
          <mxGeometry x="510" y="290" width="130" height="30" as="geometry"/>
        </mxCell>
        <mxCell id="sCoDXY34yT8PbmyZDTl2-16" value="Submit" style="rounded=1;whiteSpace=wrap;html=1;align=center;" vertex="1" parent="sCoDXY34yT8PbmyZDTl2-1">
          <mxGeometry x="360" y="340" width="90" height="30" as="geometry"/>
        </mxCell>
        <mxCell id="sCoDXY34yT8PbmyZDTl2-17" value="Reset" style="rounded=1;whiteSpace=wrap;html=1;align=center;" vertex="1" parent="sCoDXY34yT8PbmyZDTl2-1">
          <mxGeometry x="455" y="340" width="90" height="30" as="geometry"/>
        </mxCell>
        <mxCell id="sCoDXY34yT8PbmyZDTl2-19" value="Jane Daniels" style="text;html=1;strokeColor=none;fillColor=none;align=left;verticalAlign=middle;whiteSpace=wrap;rounded=0;fontStyle=0" vertex="1" parent="sCoDXY34yT8PbmyZDTl2-1">
          <mxGeometry x="95" y="270" width="105" height="20" as="geometry"/>
        </mxCell>
        <mxCell id="sCoDXY34yT8PbmyZDTl2-20" value="4242 4242 4242 4242" style="text;html=1;strokeColor=none;fillColor=none;align=left;verticalAlign=middle;whiteSpace=wrap;rounded=0;fontStyle=0" vertex="1" parent="sCoDXY34yT8PbmyZDTl2-1">
          <mxGeometry x="95" y="215" width="175" height="20" as="geometry"/>
        </mxCell>
      </root>
    </mxGraphModel>
  </diagram>
</mxfile>
